<?xml version="1.0" standalone="no"?>
<!DOCTYPE svg PUBLIC "-//W3C//DTD SVG 20010904//EN"
 "http://www.w3.org/TR/2001/REC-SVG-20010904/DTD/svg10.dtd">
<svg version="1.0" xmlns="http://www.w3.org/2000/svg"
 width="1000.000000pt" height="1080.000000pt" viewBox="0 0 1000.000000 1080.000000"
 preserveAspectRatio="xMidYMid meet">
<metadata>
Created by potrace 1.16, written by Peter Selinger 2001-2019
</metadata>
<g transform="translate(0.000000,1080.000000) scale(0.100000,-0.100000)"
fill="#000000" stroke="none">
<path d="M5242 8570 c-176 -24 -395 -137 -599 -309 l-72 -61 -83 83 c-149 149
-335 252 -499 278 -365 57 -783 -273 -870 -686 -21 -104 -15 -266 16 -370 70
-239 215 -424 593 -762 94 -85 172 -157 172 -160 0 -3 -296 -4 -657 -2 -611 3
-662 2 -718 -15 -111 -33 -171 -78 -212 -160 -55 -108 -42 -237 52 -496 29
-80 102 -299 164 -486 164 -505 225 -645 329 -756 117 -125 219 -152 697 -179
253 -14 1527 -22 2035 -12 234 5 426 8 428 7 7 -4 -62 -211 -82 -247 -28 -52
-86 -84 -171 -97 -46 -6 -491 -8 -1280 -4 -768 4 -1240 2 -1293 -4 -64 -8 -89
-15 -108 -33 -47 -44 -50 -133 -5 -173 17 -16 80 -17 752 -22 404 -3 934 -8
1179 -12 l445 -7 -55 -29 c-74 -39 -152 -122 -192 -203 -30 -62 -33 -76 -33
-163 0 -87 3 -101 32 -161 57 -115 172 -196 313 -221 171 -30 360 74 438 239
23 50 27 71 27 153 0 84 -3 101 -27 145 -41 78 -136 156 -267 220 l-45 22 90
7 c170 14 270 53 348 136 71 76 65 62 301 750 41 118 121 375 179 570 57 196
132 440 165 542 34 103 100 321 147 485 107 370 122 403 188 403 18 0 95 -12
172 -26 161 -30 236 -28 318 9 119 55 179 143 180 267 1 72 -20 173 -48 230
-17 36 -128 65 -307 80 -171 15 -241 7 -336 -40 -115 -57 -170 -143 -229 -364
-20 -72 -53 -171 -73 -221 -21 -49 -41 -98 -45 -109 -5 -14 -12 -17 -34 -11
-15 4 -289 9 -609 12 -321 3 -583 8 -583 12 0 4 12 18 26 32 15 13 73 77 131
142 331 375 463 654 463 978 0 137 -19 227 -74 344 -146 311 -464 497 -774
455z m-1266 -199 c127 -24 254 -97 388 -222 l76 -71 -26 -32 c-14 -17 -45 -46
-67 -63 -35 -27 -51 -33 -94 -33 -43 0 -53 -3 -58 -20 -10 -33 3 -55 46 -79
86 -48 205 0 393 158 165 139 274 214 391 272 215 105 387 105 542 2 119 -78
223 -229 259 -373 23 -91 15 -279 -16 -370 -79 -233 -194 -393 -571 -795 -231
-246 -402 -404 -537 -494 l-63 -42 -96 88 c-186 171 -410 368 -613 537 -330
276 -452 403 -543 564 -94 168 -117 349 -64 504 61 177 199 339 358 417 116
57 194 71 295 52z m3602 -1293 c-3 -72 -5 -80 -35 -110 -46 -46 -119 -49 -270
-13 -62 15 -142 30 -178 33 l-66 7 28 55 c33 62 75 92 143 100 25 3 121 5 213
6 l169 0 -4 -78z m-954 -695 c-13 -51 -91 -305 -158 -517 -37 -115 -108 -346
-157 -515 -50 -168 -116 -382 -148 -476 l-56 -170 -90 -8 c-126 -11 -2137 -1
-2380 12 -364 20 -501 38 -561 73 -44 26 -114 124 -158 220 -19 40 -86 226
-150 413 -64 187 -139 401 -165 475 -96 265 -121 398 -83 433 42 38 56 39 852
42 l775 2 140 -130 c77 -71 170 -161 206 -199 60 -62 69 -68 107 -68 23 0 51
4 64 9 13 5 42 14 65 20 51 14 246 151 371 263 52 46 108 94 125 108 l30 25
616 5 c339 3 649 6 689 8 l72 2 -6 -27z m-934 -2709 c69 -21 138 -68 146 -100
15 -58 -18 -145 -73 -199 -101 -98 -251 -94 -341 9 -55 62 -52 141 8 223 57
77 147 101 260 67z"/>
<path d="M3367 3889 c-134 -32 -255 -150 -298 -291 -70 -230 78 -447 336 -491
162 -28 346 70 429 228 29 56 31 67 31 160 0 89 -3 105 -27 150 -33 63 -82
109 -183 173 -112 71 -198 92 -288 71z m201 -214 c78 -23 140 -65 147 -98 11
-48 -4 -114 -38 -163 -91 -132 -273 -146 -375 -30 -52 60 -52 142 1 214 65 87
148 111 265 77z"/>
<path d="M0 400 l0 -400 5000 0 5000 0 0 400 0 400 -5000 0 -5000 0 0 -400z
m1395 106 c25 -11 33 -19 29 -30 -7 -19 -5 -19 -40 -1 -36 18 -55 19 -78 2
-28 -21 -9 -45 49 -62 87 -25 108 -74 54 -127 -29 -29 -33 -30 -90 -25 -68 6
-72 8 -64 29 5 13 12 14 40 5 50 -15 100 1 100 33 0 16 -8 28 -25 36 -87 40
-105 51 -108 67 -14 70 53 106 133 73z m587 -48 l3 -62 36 32 c20 18 45 32 55
32 14 0 9 -9 -21 -40 l-39 -40 42 -60 c40 -57 41 -60 20 -60 -16 0 -32 14 -53
45 -16 25 -33 45 -37 45 -5 0 -8 -20 -8 -45 0 -38 -3 -45 -20 -45 -19 0 -20 7
-20 130 0 122 1 130 20 130 16 0 19 -8 22 -62z m-1353 -24 c12 -15 21 -40 21
-55 0 -29 0 -29 -65 -29 -72 0 -83 -12 -44 -51 17 -17 30 -20 65 -16 43 4 59
-5 28 -17 -45 -17 -106 3 -123 41 -45 98 56 206 118 127z m456 3 c20 -16 28
-35 32 -69 5 -42 3 -50 -25 -78 -41 -41 -83 -41 -124 0 -28 28 -30 36 -25 78
9 82 84 119 142 69z m622 8 c30 -21 44 -75 32 -120 -25 -88 -143 -88 -168 0
-20 72 20 135 84 135 17 0 40 -7 52 -15z"/>
<path d="M986 424 c-50 -50 -21 -144 44 -144 48 0 80 50 66 104 -13 53 -75 75
-110 40z"/>
</g>
</svg>
